<mxfile host="app.diagrams.net" modified="2021-04-21T07:16:23.412Z" agent="5.0 (Windows NT 10.0; Win64; x64) AppleWebKit/537.36 (KHTML, like Gecko) Chrome/89.0.4389.90 Safari/537.36" etag="t8VQ_uZ19kEdBR2ArOey" version="14.6.0" type="github">
  <diagram name="Page-1" id="42789a77-a242-8287-6e28-9cd8cfd52e62">
    <mxGraphModel dx="1185" dy="635" grid="1" gridSize="10" guides="1" tooltips="1" connect="1" arrows="1" fold="1" page="1" pageScale="1" pageWidth="1100" pageHeight="850" background="#ffffff" math="0" shadow="0">
      <root>
        <mxCell id="0" />
        <mxCell id="1" parent="0" />
        <mxCell id="cZg9QvqXZRCa_vBfZT6u-2" value="&lt;font color=&quot;#ff0000&quot; style=&quot;font-size: 11px;&quot;&gt;&lt;b style=&quot;font-size: 11px;&quot;&gt;问卷 id&lt;/b&gt;&lt;br style=&quot;font-size: 11px;&quot;&gt;&lt;b style=&quot;font-size: 11px;&quot;&gt;id/questionnaire_id&lt;/b&gt;&lt;br style=&quot;font-size: 11px;&quot;&gt;&lt;/font&gt;" style="ellipse;whiteSpace=wrap;html=1;rounded=0;shadow=1;comic=0;labelBackgroundColor=none;strokeWidth=1;fontFamily=Verdana;fontSize=11;align=center;fillColor=#f8cecc;strokeColor=#b85450;gradientDirection=east;" parent="1" vertex="1">
          <mxGeometry x="340" y="230" width="90" height="60" as="geometry" />
        </mxCell>
        <mxCell id="cZg9QvqXZRCa_vBfZT6u-16" style="edgeStyle=none;rounded=0;orthogonalLoop=1;jettySize=auto;html=1;fontSize=11;fillColor=#f8cecc;strokeColor=#b85450;" parent="1" source="cZg9QvqXZRCa_vBfZT6u-4" edge="1">
          <mxGeometry relative="1" as="geometry">
            <mxPoint x="69.47672639427924" y="175.43828447238172" as="targetPoint" />
          </mxGeometry>
        </mxCell>
        <mxCell id="cZg9QvqXZRCa_vBfZT6u-17" style="edgeStyle=none;rounded=0;orthogonalLoop=1;jettySize=auto;html=1;fontSize=11;fillColor=#f8cecc;strokeColor=#b85450;" parent="1" source="cZg9QvqXZRCa_vBfZT6u-4" target="cZg9QvqXZRCa_vBfZT6u-11" edge="1">
          <mxGeometry relative="1" as="geometry" />
        </mxCell>
        <mxCell id="cZg9QvqXZRCa_vBfZT6u-18" style="edgeStyle=none;rounded=0;orthogonalLoop=1;jettySize=auto;html=1;fontSize=11;fillColor=#f8cecc;strokeColor=#b85450;" parent="1" source="cZg9QvqXZRCa_vBfZT6u-4" target="cZg9QvqXZRCa_vBfZT6u-10" edge="1">
          <mxGeometry relative="1" as="geometry" />
        </mxCell>
        <mxCell id="cZg9QvqXZRCa_vBfZT6u-19" style="edgeStyle=none;rounded=0;orthogonalLoop=1;jettySize=auto;html=1;fontSize=11;fillColor=#f8cecc;strokeColor=#b85450;" parent="1" source="cZg9QvqXZRCa_vBfZT6u-4" target="cZg9QvqXZRCa_vBfZT6u-2" edge="1">
          <mxGeometry relative="1" as="geometry" />
        </mxCell>
        <mxCell id="cZg9QvqXZRCa_vBfZT6u-58" style="edgeStyle=none;rounded=0;orthogonalLoop=1;jettySize=auto;html=1;fontSize=11;fillColor=#f8cecc;strokeColor=#b85450;" parent="1" source="cZg9QvqXZRCa_vBfZT6u-4" target="cZg9QvqXZRCa_vBfZT6u-38" edge="1">
          <mxGeometry relative="1" as="geometry" />
        </mxCell>
        <mxCell id="cZg9QvqXZRCa_vBfZT6u-62" style="edgeStyle=none;rounded=0;orthogonalLoop=1;jettySize=auto;html=1;fontSize=11;fillColor=#f8cecc;strokeColor=#b85450;" parent="1" source="cZg9QvqXZRCa_vBfZT6u-4" target="cZg9QvqXZRCa_vBfZT6u-61" edge="1">
          <mxGeometry relative="1" as="geometry" />
        </mxCell>
        <mxCell id="cZg9QvqXZRCa_vBfZT6u-68" style="edgeStyle=none;rounded=0;orthogonalLoop=1;jettySize=auto;html=1;entryX=0.022;entryY=0.767;entryDx=0;entryDy=0;entryPerimeter=0;fontSize=11;fillColor=#f8cecc;strokeColor=#b85450;" parent="1" source="cZg9QvqXZRCa_vBfZT6u-4" target="cZg9QvqXZRCa_vBfZT6u-64" edge="1">
          <mxGeometry relative="1" as="geometry" />
        </mxCell>
        <mxCell id="cZg9QvqXZRCa_vBfZT6u-70" style="edgeStyle=none;rounded=0;orthogonalLoop=1;jettySize=auto;html=1;fontSize=11;fillColor=#f8cecc;strokeColor=#b85450;" parent="1" source="cZg9QvqXZRCa_vBfZT6u-4" target="cZg9QvqXZRCa_vBfZT6u-69" edge="1">
          <mxGeometry relative="1" as="geometry" />
        </mxCell>
        <mxCell id="e1g6jkLD2kLE1leAGMlg-4" style="edgeStyle=none;rounded=0;orthogonalLoop=1;jettySize=auto;html=1;entryX=1;entryY=0;entryDx=0;entryDy=0;fillColor=#f8cecc;strokeColor=#b85450;fontSize=11;" edge="1" parent="1" source="cZg9QvqXZRCa_vBfZT6u-4" target="e1g6jkLD2kLE1leAGMlg-3">
          <mxGeometry relative="1" as="geometry" />
        </mxCell>
        <mxCell id="e1g6jkLD2kLE1leAGMlg-24" style="edgeStyle=none;rounded=0;orthogonalLoop=1;jettySize=auto;html=1;fontSize=11;fillColor=#f8cecc;strokeColor=#b85450;" edge="1" parent="1" source="cZg9QvqXZRCa_vBfZT6u-4" target="e1g6jkLD2kLE1leAGMlg-23">
          <mxGeometry relative="1" as="geometry" />
        </mxCell>
        <mxCell id="e1g6jkLD2kLE1leAGMlg-25" style="edgeStyle=none;rounded=0;orthogonalLoop=1;jettySize=auto;html=1;fontSize=11;fillColor=#f8cecc;strokeColor=#b85450;" edge="1" parent="1" source="cZg9QvqXZRCa_vBfZT6u-4" target="cZg9QvqXZRCa_vBfZT6u-9">
          <mxGeometry relative="1" as="geometry" />
        </mxCell>
        <mxCell id="cZg9QvqXZRCa_vBfZT6u-4" value="访谈录表&lt;br style=&quot;font-size: 11px;&quot;&gt;questionnaire" style="rounded=0;whiteSpace=wrap;html=1;fontSize=11;fillColor=#f8cecc;strokeColor=#b85450;" parent="1" vertex="1">
          <mxGeometry x="160" y="130" width="120" height="60" as="geometry" />
        </mxCell>
        <mxCell id="cZg9QvqXZRCa_vBfZT6u-31" style="edgeStyle=none;rounded=0;orthogonalLoop=1;jettySize=auto;html=1;fontSize=11;fillColor=#fff2cc;strokeColor=#d6b656;" parent="1" source="cZg9QvqXZRCa_vBfZT6u-5" target="cZg9QvqXZRCa_vBfZT6u-26" edge="1">
          <mxGeometry relative="1" as="geometry" />
        </mxCell>
        <mxCell id="cZg9QvqXZRCa_vBfZT6u-32" value="" style="edgeStyle=none;rounded=0;orthogonalLoop=1;jettySize=auto;html=1;fontSize=11;fillColor=#fff2cc;strokeColor=#d6b656;" parent="1" source="cZg9QvqXZRCa_vBfZT6u-5" target="cZg9QvqXZRCa_vBfZT6u-24" edge="1">
          <mxGeometry relative="1" as="geometry" />
        </mxCell>
        <mxCell id="cZg9QvqXZRCa_vBfZT6u-42" value="" style="edgeStyle=none;rounded=0;orthogonalLoop=1;jettySize=auto;html=1;fontSize=11;fillColor=#fff2cc;strokeColor=#d6b656;" parent="1" source="cZg9QvqXZRCa_vBfZT6u-5" target="cZg9QvqXZRCa_vBfZT6u-23" edge="1">
          <mxGeometry relative="1" as="geometry" />
        </mxCell>
        <mxCell id="cZg9QvqXZRCa_vBfZT6u-44" style="edgeStyle=none;rounded=0;orthogonalLoop=1;jettySize=auto;html=1;fontSize=11;fillColor=#fff2cc;strokeColor=#d6b656;" parent="1" source="cZg9QvqXZRCa_vBfZT6u-5" target="cZg9QvqXZRCa_vBfZT6u-39" edge="1">
          <mxGeometry relative="1" as="geometry" />
        </mxCell>
        <mxCell id="cZg9QvqXZRCa_vBfZT6u-59" style="edgeStyle=none;rounded=0;orthogonalLoop=1;jettySize=auto;html=1;fontSize=11;fillColor=#fff2cc;strokeColor=#d6b656;" parent="1" source="cZg9QvqXZRCa_vBfZT6u-5" target="cZg9QvqXZRCa_vBfZT6u-2" edge="1">
          <mxGeometry relative="1" as="geometry" />
        </mxCell>
        <mxCell id="cZg9QvqXZRCa_vBfZT6u-75" style="edgeStyle=none;rounded=0;orthogonalLoop=1;jettySize=auto;html=1;fontSize=11;fillColor=#fff2cc;strokeColor=#d6b656;" parent="1" source="cZg9QvqXZRCa_vBfZT6u-5" target="cZg9QvqXZRCa_vBfZT6u-34" edge="1">
          <mxGeometry relative="1" as="geometry" />
        </mxCell>
        <mxCell id="e1g6jkLD2kLE1leAGMlg-6" style="edgeStyle=none;rounded=0;orthogonalLoop=1;jettySize=auto;html=1;fontSize=11;fillColor=#fff2cc;strokeColor=#d6b656;" edge="1" parent="1" source="cZg9QvqXZRCa_vBfZT6u-5" target="e1g6jkLD2kLE1leAGMlg-5">
          <mxGeometry relative="1" as="geometry" />
        </mxCell>
        <mxCell id="e1g6jkLD2kLE1leAGMlg-8" style="edgeStyle=none;rounded=0;orthogonalLoop=1;jettySize=auto;html=1;entryX=0.5;entryY=1;entryDx=0;entryDy=0;fontSize=11;fillColor=#fff2cc;strokeColor=#d6b656;" edge="1" parent="1" source="cZg9QvqXZRCa_vBfZT6u-5" target="e1g6jkLD2kLE1leAGMlg-7">
          <mxGeometry relative="1" as="geometry" />
        </mxCell>
        <mxCell id="e1g6jkLD2kLE1leAGMlg-27" style="edgeStyle=none;rounded=0;orthogonalLoop=1;jettySize=auto;html=1;entryX=0.046;entryY=0.708;entryDx=0;entryDy=0;entryPerimeter=0;fontSize=11;fillColor=#fff2cc;strokeColor=#d6b656;" edge="1" parent="1" source="cZg9QvqXZRCa_vBfZT6u-5" target="e1g6jkLD2kLE1leAGMlg-26">
          <mxGeometry relative="1" as="geometry" />
        </mxCell>
        <mxCell id="cZg9QvqXZRCa_vBfZT6u-5" value="问题表&lt;br style=&quot;font-size: 11px;&quot;&gt;question" style="rounded=0;whiteSpace=wrap;html=1;fontSize=11;fillColor=#fff2cc;strokeColor=#d6b656;" parent="1" vertex="1">
          <mxGeometry x="494" y="130" width="120" height="60" as="geometry" />
        </mxCell>
        <mxCell id="cZg9QvqXZRCa_vBfZT6u-29" style="edgeStyle=none;rounded=0;orthogonalLoop=1;jettySize=auto;html=1;entryX=0.5;entryY=1;entryDx=0;entryDy=0;fontSize=11;fillColor=#e1d5e7;strokeColor=#9673a6;" parent="1" source="cZg9QvqXZRCa_vBfZT6u-6" target="cZg9QvqXZRCa_vBfZT6u-2" edge="1">
          <mxGeometry relative="1" as="geometry" />
        </mxCell>
        <mxCell id="cZg9QvqXZRCa_vBfZT6u-30" style="edgeStyle=none;rounded=0;orthogonalLoop=1;jettySize=auto;html=1;fontSize=11;fillColor=#e1d5e7;strokeColor=#9673a6;" parent="1" source="cZg9QvqXZRCa_vBfZT6u-6" target="cZg9QvqXZRCa_vBfZT6u-23" edge="1">
          <mxGeometry relative="1" as="geometry" />
        </mxCell>
        <mxCell id="cZg9QvqXZRCa_vBfZT6u-37" value="" style="edgeStyle=none;rounded=0;orthogonalLoop=1;jettySize=auto;html=1;fontSize=11;fillColor=#e1d5e7;strokeColor=#9673a6;" parent="1" source="cZg9QvqXZRCa_vBfZT6u-6" target="cZg9QvqXZRCa_vBfZT6u-36" edge="1">
          <mxGeometry relative="1" as="geometry" />
        </mxCell>
        <mxCell id="cZg9QvqXZRCa_vBfZT6u-50" style="edgeStyle=none;rounded=0;orthogonalLoop=1;jettySize=auto;html=1;fontSize=11;fillColor=#e1d5e7;strokeColor=#9673a6;" parent="1" source="cZg9QvqXZRCa_vBfZT6u-6" target="cZg9QvqXZRCa_vBfZT6u-48" edge="1">
          <mxGeometry relative="1" as="geometry" />
        </mxCell>
        <mxCell id="cZg9QvqXZRCa_vBfZT6u-56" style="edgeStyle=none;rounded=0;orthogonalLoop=1;jettySize=auto;html=1;entryX=0;entryY=0.5;entryDx=0;entryDy=0;fontSize=11;fillColor=#e1d5e7;strokeColor=#9673a6;" parent="1" source="cZg9QvqXZRCa_vBfZT6u-6" target="cZg9QvqXZRCa_vBfZT6u-55" edge="1">
          <mxGeometry relative="1" as="geometry" />
        </mxCell>
        <mxCell id="e1g6jkLD2kLE1leAGMlg-12" style="edgeStyle=none;rounded=0;orthogonalLoop=1;jettySize=auto;html=1;fontSize=11;fillColor=#e1d5e7;strokeColor=#9673a6;" edge="1" parent="1" source="cZg9QvqXZRCa_vBfZT6u-6" target="e1g6jkLD2kLE1leAGMlg-11">
          <mxGeometry relative="1" as="geometry" />
        </mxCell>
        <mxCell id="e1g6jkLD2kLE1leAGMlg-13" style="edgeStyle=none;rounded=0;orthogonalLoop=1;jettySize=auto;html=1;fontSize=11;fillColor=#e1d5e7;strokeColor=#9673a6;entryX=0.5;entryY=0;entryDx=0;entryDy=0;" edge="1" parent="1" source="cZg9QvqXZRCa_vBfZT6u-6" target="e1g6jkLD2kLE1leAGMlg-10">
          <mxGeometry relative="1" as="geometry" />
        </mxCell>
        <mxCell id="cZg9QvqXZRCa_vBfZT6u-6" value="答卷表&lt;br style=&quot;font-size: 11px;&quot;&gt;answer" style="rounded=0;whiteSpace=wrap;html=1;fontSize=11;fillColor=#e1d5e7;strokeColor=#9673a6;" parent="1" vertex="1">
          <mxGeometry x="325" y="360" width="120" height="60" as="geometry" />
        </mxCell>
        <mxCell id="cZg9QvqXZRCa_vBfZT6u-9" value="问卷状态&lt;br style=&quot;font-size: 11px&quot;&gt;待审核/已审核/已发布&lt;br&gt;&lt;span style=&quot;font-size: 11px&quot;&gt;status&lt;/span&gt;" style="ellipse;whiteSpace=wrap;html=1;rounded=0;shadow=1;comic=0;labelBackgroundColor=none;strokeWidth=1;fontFamily=Verdana;fontSize=11;align=center;fillColor=#f8cecc;strokeColor=#b85450;" parent="1" vertex="1">
          <mxGeometry x="50" y="270" width="90" height="60" as="geometry" />
        </mxCell>
        <mxCell id="cZg9QvqXZRCa_vBfZT6u-10" value="发布时间&lt;br style=&quot;font-size: 11px;&quot;&gt;release_time" style="ellipse;whiteSpace=wrap;html=1;rounded=0;shadow=1;comic=0;labelBackgroundColor=none;strokeWidth=1;fontFamily=Verdana;fontSize=11;align=center;fillColor=#f8cecc;strokeColor=#b85450;" parent="1" vertex="1">
          <mxGeometry x="220" y="250" width="90" height="60" as="geometry" />
        </mxCell>
        <mxCell id="cZg9QvqXZRCa_vBfZT6u-11" value="审核时间&lt;br style=&quot;font-size: 11px;&quot;&gt;verify_time" style="ellipse;whiteSpace=wrap;html=1;rounded=0;shadow=1;comic=0;labelBackgroundColor=none;strokeWidth=1;fontFamily=Verdana;fontSize=11;align=center;fillColor=#f8cecc;strokeColor=#b85450;" parent="1" vertex="1">
          <mxGeometry x="140" y="290" width="90" height="60" as="geometry" />
        </mxCell>
        <mxCell id="cZg9QvqXZRCa_vBfZT6u-12" value="创建时间&lt;br style=&quot;font-size: 11px;&quot;&gt;create_time" style="ellipse;whiteSpace=wrap;html=1;rounded=0;shadow=1;comic=0;labelBackgroundColor=none;strokeWidth=1;fontFamily=Verdana;fontSize=11;align=center;fillColor=#f8cecc;strokeColor=#b85450;" parent="1" vertex="1">
          <mxGeometry x="30" y="220" width="90" height="60" as="geometry" />
        </mxCell>
        <mxCell id="cZg9QvqXZRCa_vBfZT6u-23" value="&lt;font color=&quot;#ff0000&quot; style=&quot;font-size: 11px;&quot;&gt;&lt;b style=&quot;font-size: 11px;&quot;&gt;问题 id&lt;/b&gt;&lt;br style=&quot;font-size: 11px;&quot;&gt;&lt;b style=&quot;font-size: 11px;&quot;&gt;id/question_id&lt;/b&gt;&lt;br style=&quot;font-size: 11px;&quot;&gt;&lt;/font&gt;" style="ellipse;whiteSpace=wrap;html=1;rounded=0;shadow=1;comic=0;labelBackgroundColor=none;strokeWidth=1;fontFamily=Verdana;fontSize=11;align=center;fillColor=#fff2cc;strokeColor=#d6b656;" parent="1" vertex="1">
          <mxGeometry x="494" y="240" width="90" height="60" as="geometry" />
        </mxCell>
        <mxCell id="cZg9QvqXZRCa_vBfZT6u-24" value="问题类型&lt;br style=&quot;font-size: 11px&quot;&gt;单选/多选/填空&lt;br&gt;type" style="ellipse;whiteSpace=wrap;html=1;rounded=0;shadow=1;comic=0;labelBackgroundColor=none;strokeWidth=1;fontFamily=Verdana;fontSize=11;align=center;fillColor=#fff2cc;strokeColor=#d6b656;" parent="1" vertex="1">
          <mxGeometry x="400" y="40" width="115" height="80" as="geometry" />
        </mxCell>
        <mxCell id="cZg9QvqXZRCa_vBfZT6u-26" value="是否必填&lt;br style=&quot;font-size: 11px&quot;&gt;是/否&lt;br&gt;is_required" style="ellipse;whiteSpace=wrap;html=1;rounded=0;shadow=1;comic=0;labelBackgroundColor=none;strokeWidth=1;fontFamily=Verdana;fontSize=11;align=center;fillColor=#fff2cc;strokeColor=#d6b656;" parent="1" vertex="1">
          <mxGeometry x="695" y="140" width="90" height="60" as="geometry" />
        </mxCell>
        <mxCell id="cZg9QvqXZRCa_vBfZT6u-34" value="描述信息&lt;br&gt;comment" style="ellipse;whiteSpace=wrap;html=1;rounded=0;shadow=1;comic=0;labelBackgroundColor=none;strokeWidth=1;fontFamily=Verdana;fontSize=11;align=center;fillColor=#fff2cc;strokeColor=#d6b656;" parent="1" vertex="1">
          <mxGeometry x="630" y="20" width="90" height="60" as="geometry" />
        </mxCell>
        <mxCell id="cZg9QvqXZRCa_vBfZT6u-36" value="回答内容&lt;br&gt;content" style="ellipse;whiteSpace=wrap;html=1;rounded=0;shadow=1;comic=0;labelBackgroundColor=none;strokeWidth=1;fontFamily=Verdana;fontSize=11;align=center;fillColor=#e1d5e7;strokeColor=#9673a6;" parent="1" vertex="1">
          <mxGeometry x="265" y="490" width="90" height="60" as="geometry" />
        </mxCell>
        <mxCell id="cZg9QvqXZRCa_vBfZT6u-38" value="问卷开始时间&lt;br style=&quot;font-size: 11px;&quot;&gt;begin_time" style="ellipse;whiteSpace=wrap;html=1;rounded=0;shadow=1;comic=0;labelBackgroundColor=none;strokeWidth=1;fontFamily=Verdana;fontSize=11;align=center;fillColor=#f8cecc;strokeColor=#b85450;" parent="1" vertex="1">
          <mxGeometry x="280" y="50" width="90" height="60" as="geometry" />
        </mxCell>
        <mxCell id="cZg9QvqXZRCa_vBfZT6u-39" value="创建时间&lt;br&gt;create_time" style="ellipse;whiteSpace=wrap;html=1;rounded=0;shadow=1;comic=0;labelBackgroundColor=none;strokeWidth=1;fontFamily=Verdana;fontSize=11;align=center;fillColor=#fff2cc;strokeColor=#d6b656;" parent="1" vertex="1">
          <mxGeometry x="695" y="200" width="90" height="60" as="geometry" />
        </mxCell>
        <mxCell id="cZg9QvqXZRCa_vBfZT6u-48" value="APP 用户 id&lt;br style=&quot;font-size: 11px&quot;&gt;user_id" style="ellipse;whiteSpace=wrap;html=1;rounded=0;shadow=1;comic=0;labelBackgroundColor=none;strokeWidth=1;fontFamily=Verdana;fontSize=11;align=center;fillColor=#e1d5e7;strokeColor=#9673a6;" parent="1" vertex="1">
          <mxGeometry x="175" y="350" width="90" height="60" as="geometry" />
        </mxCell>
        <mxCell id="cZg9QvqXZRCa_vBfZT6u-55" value="&lt;font color=&quot;#ff0000&quot; style=&quot;font-size: 11px;&quot;&gt;&lt;b style=&quot;font-size: 11px;&quot;&gt;答题 id&lt;/b&gt;&lt;br style=&quot;font-size: 11px;&quot;&gt;&lt;b style=&quot;font-size: 11px;&quot;&gt;id/answer_id&lt;/b&gt;&lt;br style=&quot;font-size: 11px;&quot;&gt;&lt;/font&gt;" style="ellipse;whiteSpace=wrap;html=1;rounded=0;shadow=1;comic=0;labelBackgroundColor=none;strokeWidth=1;fontFamily=Verdana;fontSize=11;align=center;fillColor=#e1d5e7;strokeColor=#9673a6;" parent="1" vertex="1">
          <mxGeometry x="190" y="430" width="90" height="60" as="geometry" />
        </mxCell>
        <mxCell id="cZg9QvqXZRCa_vBfZT6u-61" value="问卷描述&lt;br style=&quot;font-size: 11px;&quot;&gt;comment" style="ellipse;whiteSpace=wrap;html=1;rounded=0;shadow=1;comic=0;labelBackgroundColor=none;strokeWidth=1;fontFamily=Verdana;fontSize=11;align=center;fillColor=#f8cecc;strokeColor=#b85450;" parent="1" vertex="1">
          <mxGeometry x="180" y="27.5" width="90" height="60" as="geometry" />
        </mxCell>
        <mxCell id="cZg9QvqXZRCa_vBfZT6u-64" value="问卷结束时间&lt;br style=&quot;font-size: 11px;&quot;&gt;end_time" style="ellipse;whiteSpace=wrap;html=1;rounded=0;shadow=1;comic=0;labelBackgroundColor=none;strokeWidth=1;fontFamily=Verdana;fontSize=11;align=center;fillColor=#f8cecc;strokeColor=#b85450;" parent="1" vertex="1">
          <mxGeometry x="320" y="120" width="90" height="60" as="geometry" />
        </mxCell>
        <mxCell id="cZg9QvqXZRCa_vBfZT6u-69" value="问卷标题&lt;br style=&quot;font-size: 11px;&quot;&gt;title" style="ellipse;whiteSpace=wrap;html=1;rounded=0;shadow=1;comic=0;labelBackgroundColor=none;strokeWidth=1;fontFamily=Verdana;fontSize=11;align=center;fillColor=#f8cecc;strokeColor=#b85450;" parent="1" vertex="1">
          <mxGeometry x="80" y="30" width="90" height="60" as="geometry" />
        </mxCell>
        <mxCell id="cZg9QvqXZRCa_vBfZT6u-81" style="edgeStyle=none;rounded=0;orthogonalLoop=1;jettySize=auto;html=1;entryX=1;entryY=0.5;entryDx=0;entryDy=0;fontSize=11;fillColor=#d5e8d4;strokeColor=#82b366;" parent="1" source="cZg9QvqXZRCa_vBfZT6u-74" target="cZg9QvqXZRCa_vBfZT6u-76" edge="1">
          <mxGeometry relative="1" as="geometry" />
        </mxCell>
        <mxCell id="cZg9QvqXZRCa_vBfZT6u-82" style="edgeStyle=none;rounded=0;orthogonalLoop=1;jettySize=auto;html=1;fontSize=11;fillColor=#d5e8d4;strokeColor=#82b366;" parent="1" source="cZg9QvqXZRCa_vBfZT6u-74" target="cZg9QvqXZRCa_vBfZT6u-77" edge="1">
          <mxGeometry relative="1" as="geometry" />
        </mxCell>
        <mxCell id="e1g6jkLD2kLE1leAGMlg-1" style="rounded=0;orthogonalLoop=1;jettySize=auto;html=1;entryX=0.7;entryY=0.958;entryDx=0;entryDy=0;entryPerimeter=0;fillColor=#d5e8d4;strokeColor=#82b366;fontSize=11;" edge="1" parent="1" source="cZg9QvqXZRCa_vBfZT6u-74" target="cZg9QvqXZRCa_vBfZT6u-23">
          <mxGeometry relative="1" as="geometry" />
        </mxCell>
        <mxCell id="e1g6jkLD2kLE1leAGMlg-2" style="edgeStyle=none;rounded=0;orthogonalLoop=1;jettySize=auto;html=1;fillColor=#d5e8d4;strokeColor=#82b366;fontSize=11;" edge="1" parent="1" source="cZg9QvqXZRCa_vBfZT6u-74" target="cZg9QvqXZRCa_vBfZT6u-78">
          <mxGeometry relative="1" as="geometry" />
        </mxCell>
        <mxCell id="e1g6jkLD2kLE1leAGMlg-20" style="edgeStyle=none;rounded=0;orthogonalLoop=1;jettySize=auto;html=1;fontSize=11;fillColor=#d5e8d4;strokeColor=#82b366;" edge="1" parent="1" source="cZg9QvqXZRCa_vBfZT6u-74" target="e1g6jkLD2kLE1leAGMlg-19">
          <mxGeometry relative="1" as="geometry" />
        </mxCell>
        <mxCell id="e1g6jkLD2kLE1leAGMlg-21" style="edgeStyle=none;rounded=0;orthogonalLoop=1;jettySize=auto;html=1;fontSize=11;fillColor=#d5e8d4;strokeColor=#82b366;" edge="1" parent="1" source="cZg9QvqXZRCa_vBfZT6u-74" target="e1g6jkLD2kLE1leAGMlg-18">
          <mxGeometry relative="1" as="geometry" />
        </mxCell>
        <mxCell id="cZg9QvqXZRCa_vBfZT6u-74" value="选项表&lt;br style=&quot;font-size: 11px;&quot;&gt;option" style="rounded=0;whiteSpace=wrap;html=1;fontSize=11;fillColor=#d5e8d4;strokeColor=#82b366;" parent="1" vertex="1">
          <mxGeometry x="620" y="360" width="120" height="60" as="geometry" />
        </mxCell>
        <mxCell id="cZg9QvqXZRCa_vBfZT6u-76" value="&lt;font color=&quot;#ff0000&quot; style=&quot;font-size: 11px;&quot;&gt;&lt;b style=&quot;font-size: 11px;&quot;&gt;选项 id&lt;br style=&quot;font-size: 11px;&quot;&gt;id/option_id&lt;br style=&quot;font-size: 11px;&quot;&gt;&lt;/b&gt;&lt;/font&gt;" style="ellipse;whiteSpace=wrap;html=1;rounded=0;shadow=1;comic=0;labelBackgroundColor=none;strokeWidth=1;fontFamily=Verdana;fontSize=11;align=center;fillColor=#d5e8d4;strokeColor=#82b366;" parent="1" vertex="1">
          <mxGeometry x="482.5" y="360" width="90" height="60" as="geometry" />
        </mxCell>
        <mxCell id="cZg9QvqXZRCa_vBfZT6u-77" value="选项类型&lt;br&gt;选择/文本&lt;br&gt;type" style="ellipse;whiteSpace=wrap;html=1;rounded=0;shadow=1;comic=0;labelBackgroundColor=none;strokeWidth=1;fontFamily=Verdana;fontSize=11;align=center;fillColor=#d5e8d4;strokeColor=#82b366;" parent="1" vertex="1">
          <mxGeometry x="770" y="400" width="110" height="80" as="geometry" />
        </mxCell>
        <mxCell id="cZg9QvqXZRCa_vBfZT6u-78" value="选项内容&lt;br&gt;content" style="ellipse;whiteSpace=wrap;html=1;rounded=0;shadow=1;comic=0;labelBackgroundColor=none;strokeWidth=1;fontFamily=Verdana;fontSize=11;align=center;fillColor=#d5e8d4;strokeColor=#82b366;" parent="1" vertex="1">
          <mxGeometry x="740" y="295" width="90" height="60" as="geometry" />
        </mxCell>
        <mxCell id="e1g6jkLD2kLE1leAGMlg-3" value="更新时间&lt;br style=&quot;font-size: 11px;&quot;&gt;update_time" style="ellipse;whiteSpace=wrap;html=1;rounded=0;shadow=1;comic=0;labelBackgroundColor=none;strokeWidth=1;fontFamily=Verdana;fontSize=11;align=center;fillColor=#f8cecc;strokeColor=#b85450;" vertex="1" parent="1">
          <mxGeometry y="210" width="90" height="60" as="geometry" />
        </mxCell>
        <mxCell id="e1g6jkLD2kLE1leAGMlg-5" value="更新时间&lt;br&gt;update_time" style="ellipse;whiteSpace=wrap;html=1;rounded=0;shadow=1;comic=0;labelBackgroundColor=none;strokeWidth=1;fontFamily=Verdana;fontSize=11;align=center;fillColor=#fff2cc;strokeColor=#d6b656;" vertex="1" parent="1">
          <mxGeometry x="614" y="250" width="90" height="60" as="geometry" />
        </mxCell>
        <mxCell id="e1g6jkLD2kLE1leAGMlg-7" value="问题题目&lt;br&gt;titile" style="ellipse;whiteSpace=wrap;html=1;rounded=0;shadow=1;comic=0;labelBackgroundColor=none;strokeWidth=1;fontFamily=Verdana;fontSize=11;align=center;fillColor=#fff2cc;strokeColor=#d6b656;" vertex="1" parent="1">
          <mxGeometry x="524" y="10" width="90" height="60" as="geometry" />
        </mxCell>
        <mxCell id="e1g6jkLD2kLE1leAGMlg-10" value="更新时间&lt;br&gt;update_time" style="ellipse;whiteSpace=wrap;html=1;rounded=0;shadow=1;comic=0;labelBackgroundColor=none;strokeWidth=1;fontFamily=Verdana;fontSize=11;align=center;fillColor=#e1d5e7;strokeColor=#9673a6;" vertex="1" parent="1">
          <mxGeometry x="457.5" y="470" width="90" height="60" as="geometry" />
        </mxCell>
        <mxCell id="e1g6jkLD2kLE1leAGMlg-11" value="创建时间&lt;br&gt;create_time" style="ellipse;whiteSpace=wrap;html=1;rounded=0;shadow=1;comic=0;labelBackgroundColor=none;strokeWidth=1;fontFamily=Verdana;fontSize=11;align=center;fillColor=#e1d5e7;strokeColor=#9673a6;" vertex="1" parent="1">
          <mxGeometry x="355" y="490" width="90" height="60" as="geometry" />
        </mxCell>
        <mxCell id="e1g6jkLD2kLE1leAGMlg-18" value="更新时间&lt;br&gt;update_time" style="ellipse;whiteSpace=wrap;html=1;rounded=0;shadow=1;comic=0;labelBackgroundColor=none;strokeWidth=1;fontFamily=Verdana;fontSize=11;align=center;fillColor=#d5e8d4;strokeColor=#82b366;" vertex="1" parent="1">
          <mxGeometry x="572.5" y="470" width="90" height="60" as="geometry" />
        </mxCell>
        <mxCell id="e1g6jkLD2kLE1leAGMlg-19" value="创建时间&lt;br&gt;create_time" style="ellipse;whiteSpace=wrap;html=1;rounded=0;shadow=1;comic=0;labelBackgroundColor=none;strokeWidth=1;fontFamily=Verdana;fontSize=11;align=center;fillColor=#d5e8d4;strokeColor=#82b366;" vertex="1" parent="1">
          <mxGeometry x="680" y="480" width="90" height="60" as="geometry" />
        </mxCell>
        <mxCell id="e1g6jkLD2kLE1leAGMlg-23" value="创建人&lt;br style=&quot;font-size: 11px&quot;&gt;create_by" style="ellipse;whiteSpace=wrap;html=1;rounded=0;shadow=1;comic=0;labelBackgroundColor=none;strokeWidth=1;fontFamily=Verdana;fontSize=11;align=center;fillColor=#f8cecc;strokeColor=#b85450;" vertex="1" parent="1">
          <mxGeometry y="70" width="90" height="60" as="geometry" />
        </mxCell>
        <mxCell id="e1g6jkLD2kLE1leAGMlg-26" value="问题序号&lt;br&gt;order" style="ellipse;whiteSpace=wrap;html=1;rounded=0;shadow=1;comic=0;labelBackgroundColor=none;strokeWidth=1;fontFamily=Verdana;fontSize=11;align=center;fillColor=#fff2cc;strokeColor=#d6b656;" vertex="1" parent="1">
          <mxGeometry x="690" y="70" width="90" height="60" as="geometry" />
        </mxCell>
        <mxCell id="e1g6jkLD2kLE1leAGMlg-28" value="&lt;font color=&quot;#ff0000&quot; style=&quot;font-size: 11px;&quot;&gt;&lt;b style=&quot;font-size: 11px;&quot;&gt;问卷 id&lt;/b&gt;&lt;br style=&quot;font-size: 11px;&quot;&gt;&lt;b style=&quot;font-size: 11px;&quot;&gt;id/questionnaire_id&lt;/b&gt;&lt;br style=&quot;font-size: 11px;&quot;&gt;&lt;/font&gt;" style="ellipse;whiteSpace=wrap;html=1;rounded=0;shadow=1;comic=0;labelBackgroundColor=none;strokeWidth=1;fontFamily=Verdana;fontSize=11;align=center;fillColor=#f8cecc;strokeColor=#b85450;gradientDirection=east;" vertex="1" parent="1">
          <mxGeometry x="400" y="930" width="90" height="60" as="geometry" />
        </mxCell>
        <mxCell id="e1g6jkLD2kLE1leAGMlg-30" style="edgeStyle=none;rounded=0;orthogonalLoop=1;jettySize=auto;html=1;fontSize=11;fillColor=#f8cecc;strokeColor=#b85450;" edge="1" parent="1" source="e1g6jkLD2kLE1leAGMlg-40" target="e1g6jkLD2kLE1leAGMlg-61">
          <mxGeometry relative="1" as="geometry" />
        </mxCell>
        <mxCell id="e1g6jkLD2kLE1leAGMlg-31" style="edgeStyle=none;rounded=0;orthogonalLoop=1;jettySize=auto;html=1;fontSize=11;fillColor=#f8cecc;strokeColor=#b85450;" edge="1" parent="1" source="e1g6jkLD2kLE1leAGMlg-40" target="e1g6jkLD2kLE1leAGMlg-60">
          <mxGeometry relative="1" as="geometry" />
        </mxCell>
        <mxCell id="e1g6jkLD2kLE1leAGMlg-32" style="edgeStyle=none;rounded=0;orthogonalLoop=1;jettySize=auto;html=1;fontSize=11;fillColor=#f8cecc;strokeColor=#b85450;" edge="1" parent="1" source="e1g6jkLD2kLE1leAGMlg-40" target="e1g6jkLD2kLE1leAGMlg-28">
          <mxGeometry relative="1" as="geometry" />
        </mxCell>
        <mxCell id="e1g6jkLD2kLE1leAGMlg-33" style="edgeStyle=none;rounded=0;orthogonalLoop=1;jettySize=auto;html=1;fontSize=11;fillColor=#f8cecc;strokeColor=#b85450;" edge="1" parent="1" source="e1g6jkLD2kLE1leAGMlg-40" target="e1g6jkLD2kLE1leAGMlg-67">
          <mxGeometry relative="1" as="geometry" />
        </mxCell>
        <mxCell id="e1g6jkLD2kLE1leAGMlg-34" style="edgeStyle=none;rounded=0;orthogonalLoop=1;jettySize=auto;html=1;fontSize=11;fillColor=#f8cecc;strokeColor=#b85450;" edge="1" parent="1" source="e1g6jkLD2kLE1leAGMlg-40" target="e1g6jkLD2kLE1leAGMlg-71">
          <mxGeometry relative="1" as="geometry" />
        </mxCell>
        <mxCell id="e1g6jkLD2kLE1leAGMlg-35" style="edgeStyle=none;rounded=0;orthogonalLoop=1;jettySize=auto;html=1;entryX=0.022;entryY=0.767;entryDx=0;entryDy=0;entryPerimeter=0;fontSize=11;fillColor=#f8cecc;strokeColor=#b85450;" edge="1" parent="1" source="e1g6jkLD2kLE1leAGMlg-40" target="e1g6jkLD2kLE1leAGMlg-72">
          <mxGeometry relative="1" as="geometry" />
        </mxCell>
        <mxCell id="e1g6jkLD2kLE1leAGMlg-36" style="edgeStyle=none;rounded=0;orthogonalLoop=1;jettySize=auto;html=1;fontSize=11;fillColor=#f8cecc;strokeColor=#b85450;" edge="1" parent="1" source="e1g6jkLD2kLE1leAGMlg-40" target="e1g6jkLD2kLE1leAGMlg-73">
          <mxGeometry relative="1" as="geometry" />
        </mxCell>
        <mxCell id="e1g6jkLD2kLE1leAGMlg-37" style="edgeStyle=none;rounded=0;orthogonalLoop=1;jettySize=auto;html=1;entryX=1;entryY=0;entryDx=0;entryDy=0;fillColor=#f8cecc;strokeColor=#b85450;fontSize=11;" edge="1" parent="1" source="e1g6jkLD2kLE1leAGMlg-40" target="e1g6jkLD2kLE1leAGMlg-84">
          <mxGeometry relative="1" as="geometry" />
        </mxCell>
        <mxCell id="e1g6jkLD2kLE1leAGMlg-38" style="edgeStyle=none;rounded=0;orthogonalLoop=1;jettySize=auto;html=1;fontSize=11;fillColor=#f8cecc;strokeColor=#b85450;" edge="1" parent="1" source="e1g6jkLD2kLE1leAGMlg-40" target="e1g6jkLD2kLE1leAGMlg-91">
          <mxGeometry relative="1" as="geometry" />
        </mxCell>
        <mxCell id="e1g6jkLD2kLE1leAGMlg-39" style="edgeStyle=none;rounded=0;orthogonalLoop=1;jettySize=auto;html=1;fontSize=11;fillColor=#f8cecc;strokeColor=#b85450;" edge="1" parent="1" source="e1g6jkLD2kLE1leAGMlg-40" target="e1g6jkLD2kLE1leAGMlg-59">
          <mxGeometry relative="1" as="geometry" />
        </mxCell>
        <mxCell id="e1g6jkLD2kLE1leAGMlg-107" style="edgeStyle=none;rounded=0;orthogonalLoop=1;jettySize=auto;html=1;fontSize=11;fillColor=#f8cecc;strokeColor=#b85450;" edge="1" parent="1" source="e1g6jkLD2kLE1leAGMlg-40" target="e1g6jkLD2kLE1leAGMlg-106">
          <mxGeometry relative="1" as="geometry" />
        </mxCell>
        <mxCell id="e1g6jkLD2kLE1leAGMlg-40" value="访谈录表&lt;br style=&quot;font-size: 11px;&quot;&gt;questionnaire" style="rounded=0;whiteSpace=wrap;html=1;fontSize=11;fillColor=#f8cecc;strokeColor=#b85450;" vertex="1" parent="1">
          <mxGeometry x="190" y="930" width="120" height="60" as="geometry" />
        </mxCell>
        <mxCell id="e1g6jkLD2kLE1leAGMlg-53" value="" style="edgeStyle=none;rounded=0;orthogonalLoop=1;jettySize=auto;html=1;fontSize=11;fillColor=#e1d5e7;strokeColor=#9673a6;" edge="1" parent="1" source="e1g6jkLD2kLE1leAGMlg-58" target="e1g6jkLD2kLE1leAGMlg-66">
          <mxGeometry relative="1" as="geometry" />
        </mxCell>
        <mxCell id="e1g6jkLD2kLE1leAGMlg-54" style="edgeStyle=none;rounded=0;orthogonalLoop=1;jettySize=auto;html=1;fontSize=11;fillColor=#e1d5e7;strokeColor=#9673a6;" edge="1" parent="1" source="e1g6jkLD2kLE1leAGMlg-58" target="e1g6jkLD2kLE1leAGMlg-69">
          <mxGeometry relative="1" as="geometry" />
        </mxCell>
        <mxCell id="e1g6jkLD2kLE1leAGMlg-56" style="edgeStyle=none;rounded=0;orthogonalLoop=1;jettySize=auto;html=1;fontSize=11;fillColor=#e1d5e7;strokeColor=#9673a6;" edge="1" parent="1" source="e1g6jkLD2kLE1leAGMlg-58" target="e1g6jkLD2kLE1leAGMlg-88">
          <mxGeometry relative="1" as="geometry" />
        </mxCell>
        <mxCell id="e1g6jkLD2kLE1leAGMlg-108" style="edgeStyle=none;rounded=0;orthogonalLoop=1;jettySize=auto;html=1;entryX=1;entryY=0.5;entryDx=0;entryDy=0;fontSize=11;fillColor=#e1d5e7;strokeColor=#9673a6;" edge="1" parent="1" source="e1g6jkLD2kLE1leAGMlg-58" target="e1g6jkLD2kLE1leAGMlg-28">
          <mxGeometry relative="1" as="geometry" />
        </mxCell>
        <mxCell id="e1g6jkLD2kLE1leAGMlg-109" style="edgeStyle=none;rounded=0;orthogonalLoop=1;jettySize=auto;html=1;fontSize=11;fillColor=#e1d5e7;strokeColor=#9673a6;" edge="1" parent="1" source="e1g6jkLD2kLE1leAGMlg-58" target="e1g6jkLD2kLE1leAGMlg-87">
          <mxGeometry relative="1" as="geometry" />
        </mxCell>
        <mxCell id="e1g6jkLD2kLE1leAGMlg-114" style="edgeStyle=none;rounded=0;orthogonalLoop=1;jettySize=auto;html=1;entryX=0.287;entryY=0.972;entryDx=0;entryDy=0;entryPerimeter=0;fontSize=11;fillColor=#e1d5e7;strokeColor=#9673a6;" edge="1" parent="1" source="e1g6jkLD2kLE1leAGMlg-58" target="e1g6jkLD2kLE1leAGMlg-113">
          <mxGeometry relative="1" as="geometry" />
        </mxCell>
        <mxCell id="e1g6jkLD2kLE1leAGMlg-58" value="答卷表&lt;br style=&quot;font-size: 11px;&quot;&gt;answer" style="rounded=0;whiteSpace=wrap;html=1;fontSize=11;fillColor=#e1d5e7;strokeColor=#9673a6;" vertex="1" parent="1">
          <mxGeometry x="645" y="930" width="120" height="60" as="geometry" />
        </mxCell>
        <mxCell id="e1g6jkLD2kLE1leAGMlg-59" value="问卷状态&lt;br style=&quot;font-size: 11px&quot;&gt;待审核/已审核/已发布&lt;br&gt;&lt;span style=&quot;font-size: 11px&quot;&gt;status&lt;/span&gt;" style="ellipse;whiteSpace=wrap;html=1;rounded=0;shadow=1;comic=0;labelBackgroundColor=none;strokeWidth=1;fontFamily=Verdana;fontSize=11;align=center;fillColor=#f8cecc;strokeColor=#b85450;" vertex="1" parent="1">
          <mxGeometry x="80" y="1070" width="90" height="60" as="geometry" />
        </mxCell>
        <mxCell id="e1g6jkLD2kLE1leAGMlg-60" value="发布时间&lt;br style=&quot;font-size: 11px;&quot;&gt;release_time" style="ellipse;whiteSpace=wrap;html=1;rounded=0;shadow=1;comic=0;labelBackgroundColor=none;strokeWidth=1;fontFamily=Verdana;fontSize=11;align=center;fillColor=#f8cecc;strokeColor=#b85450;" vertex="1" parent="1">
          <mxGeometry x="270" y="1070" width="90" height="60" as="geometry" />
        </mxCell>
        <mxCell id="e1g6jkLD2kLE1leAGMlg-61" value="审核时间&lt;br style=&quot;font-size: 11px;&quot;&gt;verify_time" style="ellipse;whiteSpace=wrap;html=1;rounded=0;shadow=1;comic=0;labelBackgroundColor=none;strokeWidth=1;fontFamily=Verdana;fontSize=11;align=center;fillColor=#f8cecc;strokeColor=#b85450;" vertex="1" parent="1">
          <mxGeometry x="180" y="1080" width="90" height="60" as="geometry" />
        </mxCell>
        <mxCell id="e1g6jkLD2kLE1leAGMlg-66" value="回答内容&lt;br&gt;content" style="ellipse;whiteSpace=wrap;html=1;rounded=0;shadow=1;comic=0;labelBackgroundColor=none;strokeWidth=1;fontFamily=Verdana;fontSize=11;align=center;fillColor=#e1d5e7;strokeColor=#9673a6;" vertex="1" parent="1">
          <mxGeometry x="820" y="930" width="90" height="60" as="geometry" />
        </mxCell>
        <mxCell id="e1g6jkLD2kLE1leAGMlg-67" value="问卷开始时间&lt;br style=&quot;font-size: 11px;&quot;&gt;begin_time" style="ellipse;whiteSpace=wrap;html=1;rounded=0;shadow=1;comic=0;labelBackgroundColor=none;strokeWidth=1;fontFamily=Verdana;fontSize=11;align=center;fillColor=#f8cecc;strokeColor=#b85450;" vertex="1" parent="1">
          <mxGeometry x="265" y="827.5" width="90" height="60" as="geometry" />
        </mxCell>
        <mxCell id="e1g6jkLD2kLE1leAGMlg-69" value="APP 用户 id&lt;br style=&quot;font-size: 11px&quot;&gt;user_id" style="ellipse;whiteSpace=wrap;html=1;rounded=0;shadow=1;comic=0;labelBackgroundColor=none;strokeWidth=1;fontFamily=Verdana;fontSize=11;align=center;fillColor=#e1d5e7;strokeColor=#9673a6;" vertex="1" parent="1">
          <mxGeometry x="600" y="850" width="90" height="60" as="geometry" />
        </mxCell>
        <mxCell id="e1g6jkLD2kLE1leAGMlg-71" value="问卷描述&lt;br style=&quot;font-size: 11px;&quot;&gt;comment" style="ellipse;whiteSpace=wrap;html=1;rounded=0;shadow=1;comic=0;labelBackgroundColor=none;strokeWidth=1;fontFamily=Verdana;fontSize=11;align=center;fillColor=#f8cecc;strokeColor=#b85450;" vertex="1" parent="1">
          <mxGeometry x="140" y="827.5" width="90" height="60" as="geometry" />
        </mxCell>
        <mxCell id="e1g6jkLD2kLE1leAGMlg-72" value="问卷结束时间&lt;br style=&quot;font-size: 11px;&quot;&gt;end_time" style="ellipse;whiteSpace=wrap;html=1;rounded=0;shadow=1;comic=0;labelBackgroundColor=none;strokeWidth=1;fontFamily=Verdana;fontSize=11;align=center;fillColor=#f8cecc;strokeColor=#b85450;" vertex="1" parent="1">
          <mxGeometry x="360" y="870" width="90" height="60" as="geometry" />
        </mxCell>
        <mxCell id="e1g6jkLD2kLE1leAGMlg-73" value="问卷标题&lt;br style=&quot;font-size: 11px;&quot;&gt;title" style="ellipse;whiteSpace=wrap;html=1;rounded=0;shadow=1;comic=0;labelBackgroundColor=none;strokeWidth=1;fontFamily=Verdana;fontSize=11;align=center;fillColor=#f8cecc;strokeColor=#b85450;" vertex="1" parent="1">
          <mxGeometry x="60" y="870" width="90" height="60" as="geometry" />
        </mxCell>
        <mxCell id="e1g6jkLD2kLE1leAGMlg-84" value="更新时间&lt;br style=&quot;font-size: 11px;&quot;&gt;update_time" style="ellipse;whiteSpace=wrap;html=1;rounded=0;shadow=1;comic=0;labelBackgroundColor=none;strokeWidth=1;fontFamily=Verdana;fontSize=11;align=center;fillColor=#f8cecc;strokeColor=#b85450;" vertex="1" parent="1">
          <mxGeometry x="30" y="1010" width="90" height="60" as="geometry" />
        </mxCell>
        <mxCell id="e1g6jkLD2kLE1leAGMlg-87" value="更新时间&lt;br&gt;update_time" style="ellipse;whiteSpace=wrap;html=1;rounded=0;shadow=1;comic=0;labelBackgroundColor=none;strokeWidth=1;fontFamily=Verdana;fontSize=11;align=center;fillColor=#e1d5e7;strokeColor=#9673a6;" vertex="1" parent="1">
          <mxGeometry x="720" y="1025" width="90" height="60" as="geometry" />
        </mxCell>
        <mxCell id="e1g6jkLD2kLE1leAGMlg-88" value="创建时间&lt;br&gt;create_time" style="ellipse;whiteSpace=wrap;html=1;rounded=0;shadow=1;comic=0;labelBackgroundColor=none;strokeWidth=1;fontFamily=Verdana;fontSize=11;align=center;fillColor=#e1d5e7;strokeColor=#9673a6;" vertex="1" parent="1">
          <mxGeometry x="600" y="1020" width="90" height="60" as="geometry" />
        </mxCell>
        <mxCell id="e1g6jkLD2kLE1leAGMlg-91" value="创建人&lt;br style=&quot;font-size: 11px&quot;&gt;create_by" style="ellipse;whiteSpace=wrap;html=1;rounded=0;shadow=1;comic=0;labelBackgroundColor=none;strokeWidth=1;fontFamily=Verdana;fontSize=11;align=center;fillColor=#f8cecc;strokeColor=#b85450;" vertex="1" parent="1">
          <mxGeometry x="10" y="930" width="90" height="60" as="geometry" />
        </mxCell>
        <mxCell id="e1g6jkLD2kLE1leAGMlg-106" value="&lt;span style=&quot;font-family: &amp;#34;helvetica&amp;#34;&quot;&gt;问题 JSON ARRAY&lt;/span&gt;&lt;br style=&quot;font-family: &amp;#34;helvetica&amp;#34;&quot;&gt;&lt;span style=&quot;font-family: &amp;#34;helvetica&amp;#34;&quot;&gt;question&lt;/span&gt;" style="ellipse;whiteSpace=wrap;html=1;rounded=0;shadow=1;comic=0;labelBackgroundColor=none;strokeWidth=1;fontFamily=Verdana;fontSize=11;align=center;fillColor=#f8cecc;strokeColor=#b85450;" vertex="1" parent="1">
          <mxGeometry x="342.5" y="1020" width="115" height="70" as="geometry" />
        </mxCell>
        <mxCell id="e1g6jkLD2kLE1leAGMlg-113" value="问题 id&lt;br style=&quot;font-size: 11px&quot;&gt;question_id" style="ellipse;whiteSpace=wrap;html=1;rounded=0;shadow=1;comic=0;labelBackgroundColor=none;strokeWidth=1;fontFamily=Verdana;fontSize=11;align=center;fillColor=#e1d5e7;strokeColor=#9673a6;" vertex="1" parent="1">
          <mxGeometry x="765" y="850" width="90" height="60" as="geometry" />
        </mxCell>
      </root>
    </mxGraphModel>
  </diagram>
</mxfile>
